# xmcd
#
# Track frame offsets:
#	150
#	11686
#	24185
#	40527
#	51517
#	64250
#	76241
#	89006
#	99621
#	115169
#	127856
# Disc length: 1848 seconds
# Revision: 2
# Processed by: cddbd v1.5.2PL0 Copyright (c) Steve Scherf et al.
#
# Submitted via: libkcddb 0.31
#
DISCID=8407360b
DTITLE=Eddie Rabbitt - Rocky Mountain Music
DYEAR=1976
DGENRE=Crossover
TTITLE0=Do You Right Tonight
TTITLE1=I Can't Get This Ring Off My Finger
TTITLE2=Rocky Mountain Music
TTITLE3=Two Dollars In The Jukebox
TTITLE4=I Don't Wanna Make Love (With Anyone But You)
TTITLE5=I Just Got To Have You
TTITLE6=Tullahoma Dancing Pizza Man
TTITLE7=Ain't I Something
TTITLE8=There's Someone She Lies To (To Lay Here with Me)
TTITLE9=Could You Love A Poor Boy, Dolly
TTITLE10=Drinkin' My Baby (Off My Mind)
EXTD=
EXTT0=
EXTT1=
EXTT2=
EXTT3=
EXTT4=
EXTT5=
EXTT6=
EXTT7=
EXTT8=
EXTT9=
EXTT10=
PLAYORDER=
